<svg width="150" height="150" viewBox="0 0 150 150" fill="none" xmlns="http://www.w3.org/2000/svg">
<circle cx="75" cy="75" r="75" fill="#E4E4E4"/>
<path d="M78.4411 66.4609H64.4425C64.1868 64.6499 63.6648 63.0412 62.8764 61.6349C62.0881 60.2074 61.076 58.9929 59.8402 57.9915C58.6044 56.9901 57.1768 56.223 55.5575 55.6903C53.9595 55.1577 52.223 54.8913 50.348 54.8913C46.9602 54.8913 44.0092 55.733 41.495 57.4162C38.9808 59.0781 37.0313 61.5071 35.6463 64.7031C34.2614 67.8778 33.5689 71.7344 33.5689 76.2727C33.5689 80.9389 34.2614 84.8594 35.6463 88.0341C37.0526 91.2088 39.0128 93.6058 41.527 95.2251C44.0412 96.8445 46.9496 97.6541 50.2521 97.6541C52.1058 97.6541 53.821 97.4091 55.3977 96.919C56.9957 96.429 58.4126 95.7152 59.6484 94.7777C60.8842 93.8189 61.907 92.6577 62.7166 91.294C63.5476 89.9304 64.1229 88.375 64.4425 86.6278L78.4411 86.6918C78.0788 89.696 77.1733 92.5938 75.7244 95.3849C74.2969 98.1548 72.3686 100.637 69.9396 102.832C67.532 105.005 64.6555 106.731 61.3104 108.009C57.9865 109.266 54.2259 109.895 50.0284 109.895C44.1903 109.895 38.9702 108.574 34.3679 105.932C29.7869 103.29 26.1648 99.4652 23.5014 94.4581C20.8594 89.451 19.5384 83.3892 19.5384 76.2727C19.5384 69.1349 20.8807 63.0625 23.5653 58.0554C26.25 53.0483 29.8935 49.2344 34.4957 46.6136C39.098 43.9716 44.2756 42.6506 50.0284 42.6506C53.821 42.6506 57.3366 43.1832 60.5753 44.2486C63.8352 45.3139 66.7223 46.8693 69.2365 48.9148C71.7507 50.9389 73.7962 53.4212 75.3729 56.3615C76.9709 59.3018 77.9936 62.6683 78.4411 66.4609Z" fill="#F5F5F5"/>
<path d="M88.3647 109V43.5455H102.203V97.5902H130.265V109H88.3647Z" fill="#319795"/>
</svg>
