<svg width="496" height="184" viewBox="0 0 496 184" fill="none" xmlns="http://www.w3.org/2000/svg">
<path d="M0 2H39.5399M62.0626 2V182M62.0626 2H39.5399M62.0626 2L146.147 55.7759M62.0626 182H39.5399M62.0626 182L146.147 132.705M0 182H39.5399M39.5399 2V182M146.147 132.705V55.7759M146.147 132.705H213.715M146.147 55.7759H213.715M213.715 55.7759V132.705M213.715 55.7759L290.293 17.6846M213.715 132.705L290.293 170.05M290.293 17.6846H436.44M290.293 17.6846V170.05M290.293 170.05L466.47 167.673M496 17.6846H466.22M496 167.809L466.47 167.673M436.44 17.6846H466.22M436.44 17.6846V24.4066L436.442 25.9767M436.517 168.077L466.47 167.673M436.517 168.077L466.245 159.67M436.517 168.077L436.443 159.669M466.47 167.673L466.284 57.4233M466.47 167.673L466.308 72.2843M466.22 17.6846V17.6878M466.27 49.1307V49.1345M466.27 49.1307L465.554 49.3299M466.27 49.1307L466.257 40.8418M436.479 57.4233V65.5623M436.479 57.4233L465.554 49.3299M436.479 57.4233L436.459 40.8334M466.284 57.4233L436.479 65.5623M466.284 57.4233L466.296 64.8154M466.284 57.4233L466.27 49.1345M436.479 65.5623L436.47 88.8611M466.296 64.8154L436.479 72.2843M466.296 64.8154L466.308 72.2843M466.308 72.2843L436.517 80.5768M466.322 80.5768L436.517 88.7158M466.231 17.6846L466.22 17.6878M436.44 25.9772L436.442 25.9767M466.245 25.9772L466.233 25.9805M436.44 34.1162L436.451 34.1131M466.257 33.3693L466.245 33.3724M436.44 40.8382L436.459 40.8334M466.27 40.8382L466.257 40.8418M436.479 49.1307L466.257 40.8418M466.284 49.1307L466.27 49.1345M466.27 112.023L465.554 112.222M465.554 112.222L436.479 120.315M465.554 112.222L466.284 112.023M465.554 112.222L436.479 120.162M466.284 120.315L436.479 128.454M466.296 127.708L436.479 135.176M466.308 135.176L436.517 143.469M466.206 143.239L436.446 151.365M436.401 151.378L436.446 151.365M466.231 80.5768L436.47 88.8611M436.44 88.8694L436.47 88.8611M466.245 88.8694L436.467 97.0011M436.44 97.0084L436.467 97.0011M466.257 96.2615L436.464 103.724M436.44 103.73L436.464 103.724M466.27 103.73L436.479 112.023M466.231 151.378L436.443 159.669M436.44 159.67L436.443 159.669M436.47 88.8611L436.467 97.0011M436.467 97.0011L436.464 103.724M436.464 103.724L436.446 151.365M436.446 151.365L436.443 159.669M465.554 49.3299L466.27 49.1345M465.554 49.3299L436.479 57.2697L436.459 40.8334M466.257 40.8418L466.245 33.3724M466.245 33.3724L436.459 40.8334M466.245 33.3724L466.233 25.9805M436.459 40.8334L436.451 34.1131M466.233 25.9805L436.451 34.1131M466.233 25.9805L466.22 17.6878M436.451 34.1131L436.442 25.9767M466.22 17.6878L436.442 25.9767" stroke="black" strokeWidth="3"/>
</svg>
