<svg width="121" height="79" viewBox="0 0 121 79" fill="none" xmlns="http://www.w3.org/2000/svg">
<path d="M22.5 1V17H26.75V1H22.5Z" fill="black"/>
<path d="M22.5 40H26.75V25H22.5V40Z" fill="black"/>
<path d="M22.5 56H26.75V40H22.5V56Z" fill="black"/>
<path d="M22.5 62.5V78.5H26.75V62.5H22.5Z" fill="black"/>
<path d="M45 40H41V56H45V40Z" fill="black"/>
<path d="M41 62.5V78.5H45.5V62.5H41Z" fill="black"/>
<path d="M45 25H41V40H45V25Z" fill="black"/>
<path d="M41 1V17H45.5V1H41Z" fill="black"/>
<path d="M59.5 1V17H64V1H59.5Z" fill="black"/>
<path d="M59.5 25L59.75 40H64V25H59.5Z" fill="black"/>
<path d="M78 1V17H83V1H78Z" fill="black"/>
<path d="M78 25V40H83V25H78Z" fill="black"/>
<path d="M78 56H83V40H78V56Z" fill="black"/>
<path d="M78 62.5V78.5H83V71V62.5H78Z" fill="black"/>
<path d="M59.5 62.5V78.5H64V62.5H59.5Z" fill="black"/>
<path d="M97 62.5V78.5H101.75V62.5H97Z" fill="black"/>
<path d="M97 40V56H101.75V40H97Z" fill="black"/>
<path d="M101.75 25H97V40H101.75V25Z" fill="black"/>
<path d="M97 1V16.5L101.75 17V1H97Z" fill="black"/>
<path d="M59.75 56H64V40H59.75V56Z" fill="black"/>
<path d="M8.5 18.5H1V60.5H8.5M8.5 18.5V25M8.5 18.5V17M8.5 62.5V78.5H22.5M8.5 62.5V56M8.5 62.5H15.5M120.5 62.5V78.5H106M120.5 62.5V56M120.5 62.5H106M120.5 56V40M120.5 56H106M8.5 56V40M8.5 56H15.5M8.5 40V25M8.5 40H22.5M120.5 40V25M120.5 40H101.75M120.5 25V17M120.5 25H106M8.5 25H15.5M8.5 17V1H22.5M8.5 17H15.5M120.5 17V1H106M120.5 17H106M31 1V17M31 1H41M31 1H26.75M31 17H41M31 17H26.75M31 25V40M31 25H41M31 25H26.75M31 40V56M31 40H26.75M31 40H41M31 56H41M31 56H26.75M31 78.5V62.5M31 78.5H41M31 78.5H26.75M31 62.5H41M31 62.5H26.75M22.5 78.5V62.5M22.5 78.5H26.75M22.5 62.5H15.5M22.5 62.5H26.75M22.5 1V17M22.5 1H26.75M22.5 17H15.5M22.5 17H26.75M22.5 25H15.5M22.5 25H26.75M22.5 25V40M22.5 56H15.5M22.5 56H26.75M22.5 56V40M41 1V17M41 1H45.5M41 17H45.5M41 25H45M41 25V40M41 56H45M41 56V40M41 62.5V78.5M41 62.5H45.5M41 78.5H45.5M45.5 78.5V62.5M45.5 78.5H49M45.5 62.5H49M49 78.5V62.5M49 78.5H59.5M49 62.5H59.5M49 56V25M49 56H45M49 56H64M49 25H45M49 25H59.5M45 25V40M45 56V40M45.5 17V1M45.5 17H49M45.5 1H49M49 17V1M49 17H59.5M49 1H59.5M59.5 1V17M59.5 1H64M59.5 17H64M59.5 25H64M59.5 25L59.75 40M59.5 62.5V78.5M59.5 62.5H64M59.5 78.5H64M64 78.5V62.5M64 78.5H68M64 62.5H68M64 56H68M64 56V40M64 56H59.75V40M64 25H68M64 25V40M64 17V1M64 17H68M64 1H68M68 1V17M68 1H78M68 17H78M68 25V56M68 25H78M68 56H78M68 62.5V78.5M68 62.5H78M68 78.5H78M78 78.5V62.5M78 78.5H83M78 62.5H83M78 56H83M78 56V40M78 25H83M78 25V40M78 17V1M78 17H83M78 1H83M83 1V17M83 1H86M83 17H101.75M83 25H87M83 25V40M83 56H87M83 56V40M83 62.5H87M83 62.5V71V78.5M83 78.5H87M87 78.5V62.5M87 78.5H97M87 62.5H97M87 56V25M87 56H97M87 25H97M86 16.5V1M86 1H97M97 1V16.5L101.75 17M97 1H101.75M101.75 17V1M101.75 17H106M101.75 1H106M106 1V17M97 25H101.75M97 25V40M97 56H101.75M97 56V40M101.75 25H106M101.75 25V40M101.75 56H106M101.75 56V40M106 25V56M97 62.5V78.5M97 62.5H101.75M97 78.5H101.75M101.75 62.5V78.5M101.75 62.5H106M101.75 78.5H106M106 62.5V78.5M15.5 17V25M15.5 56V62.5M26.75 1V17M26.75 25V40M26.75 56V40M26.75 62.5V78.5M22.5 40H26.75M45 40H41M45 40H59.75M59.75 40H64M64 40H78M78 40H83M83 40H97M97 40H101.75" stroke="black"/>
</svg>
