<svg width="116" height="66" viewBox="0 0 116 66" fill="none" xmlns="http://www.w3.org/2000/svg">
<path d="M8 1V4.5C14.7559 4.40511 23.1126 4.29121 32 4.17424V1H8Z" fill="black"/>
<path d="M55.5 1H32V4.17424C39.6673 4.07332 47.7297 3.97012 55.5 3.87487V1Z" fill="black"/>
<path d="M79 3.60478V1H55.5V3.87487C63.9785 3.77094 72.1093 3.67648 79 3.60478Z" fill="black"/>
<path d="M99 3.5V1H79V3.60478C90.6182 3.48389 98.7108 3.42771 99 3.5Z" fill="black"/>
<path d="M8 65H32V62.5H8V65Z" fill="black"/>
<path d="M32 65H55V62.5H32V65Z" fill="black"/>
<path d="M55 65H79V62.5H55V65Z" fill="black"/>
<path d="M79 65H99V62.5H79V65Z" fill="black"/>
<path d="M103.5 12H109V6.5M103.5 12V17M103.5 12V6.5M103.5 17H115.5V56.5H111.5M103.5 17V33.5M111.5 56.5V65H103.5M111.5 56.5H99M103.5 1H109V6.5M103.5 1V6.5M103.5 1H99M103.5 6.5H109M103.5 6.5H99M103.5 65H99M103.5 65V33.5M99 56.5V6.5M99 56.5V62.5M99 65H79M99 65V62.5M99 1V6.5M99 1H79M99 1V3.5C98.7108 3.42771 90.6182 3.48389 79 3.60478M103.5 33.5H8M8 33.5V4.5M8 33.5V56.5M8 65H1V56.5M8 65H32M8 65V62.5M8 1H1V4.5M8 1V4.5M8 1H32M1 4.5H8M1 4.5V56.5M8 4.5C14.7559 4.40511 23.1126 4.29121 32 4.17424M1 56.5H8M8 56.5V62.5M20.5 13V54M32 1H55.5M32 1V4.17424M32 22.5V4.17424M32 65H55M32 65V62.5M32 45V62.5M55 45V62.5M55 65H79M55 65V62.5M79 45V62.5M79 65V62.5M79 1H55.5M79 1V3.60478M79 22.5V3.60478M55.5 1V3.87487M55.5 22.5V3.87487M43.5 13C43.5 20.6 43.5 43.5 43.5 54M67.5 13V54M91 13V54M107.5 26.5H111.5M107.5 33.5H111.5M107.5 41H111.5M8 62.5H32M99 62.5H79M32 4.17424C39.6673 4.07332 47.7297 3.97012 55.5 3.87487M55.5 3.87487C63.9785 3.77094 72.1093 3.67648 79 3.60478M32 62.5H55M55 62.5H79" stroke="black"/>
</svg>
