<svg width="76" height="127" viewBox="0 0 76 127" fill="none" xmlns="http://www.w3.org/2000/svg">
<path d="M6.77305 9V33.5H10.4468V9H6.77305Z" fill="black"/>
<path d="M17.7943 9V33.5H22.5177V9H17.7943Z" fill="black"/>
<path d="M30.3901 9V33.5H34.0638V9H30.3901Z" fill="black"/>
<path d="M40.8865 9V33.5H45.6099V9H40.8865Z" fill="black"/>
<path d="M52.9574 9V33.5H56.6312V9H52.9574Z" fill="black"/>
<path d="M63.4539 9V33.5H67.6525C67.6525 25.3333 67.6525 17.1667 67.6525 9H63.4539Z" fill="black"/>
<path d="M67.6525 40H63.4539V62.5H67.6525V40Z" fill="black"/>
<path d="M56.6312 62.5V40H52.9574V62.5H56.6312Z" fill="black"/>
<path d="M45.6099 62.5V40H40.8865V62.5H45.6099Z" fill="black"/>
<path d="M34.0638 62.5V40H30.3901V62.5H34.0638Z" fill="black"/>
<path d="M22.5177 62.5V40H17.7943V62.5H22.5177Z" fill="black"/>
<path d="M10.4468 62.5V40H6.77305V62.5H10.4468Z" fill="black"/>
<path d="M10.4468 70H6.77305V94H10.4468V70Z" fill="black"/>
<path d="M17.7943 70V94H22.5177V70H17.7943Z" fill="black"/>
<path d="M30.3901 70V94H34.0638V70H30.3901Z" fill="black"/>
<path d="M40.8865 70V94H45.6099V70H40.8865Z" fill="black"/>
<path d="M52.9574 70V94H56.6312V70H52.9574Z" fill="black"/>
<path d="M67.6525 94V70H63.4539V94H67.6525Z" fill="black"/>
<path d="M63.4539 126H67.6525V101.5H63.4539V126Z" fill="black"/>
<path d="M52.9574 126H56.6312V101.5H52.9574V126Z" fill="black"/>
<path d="M40.8865 126H45.6099V101.5H40.8865V126Z" fill="black"/>
<path d="M30.3901 126H34.0638V101.5H30.3901V126Z" fill="black"/>
<path d="M17.7943 126H22.5177V101.5H17.7943V126Z" fill="black"/>
<path d="M1 94V101.5H5.19858V94H1Z" fill="black"/>
<path d="M1 62.5V70H5.19858V62.5H1Z" fill="black"/>
<path d="M1 33.5V40H5.19858V33.5H1Z" fill="black"/>
<path d="M1 1V9H5.19858V1H1Z" fill="black"/>
<path d="M6.77305 126H10.4468V101.5H6.77305V126Z" fill="black"/>
<path d="M75 9V1H67.6525M75 9H67.6525M75 9V21V33.5M1 9V1H5.19858M1 9V33.5M1 9H5.19858M75 40V62.5M75 40V33.5M75 40H67.6525M1 40V62.5M1 40V33.5M1 40H5.19858M75 70V94M75 70V62.5M75 70H67.6525M1 70V94M1 70V62.5M1 70H5.19858M75 101.5V126H67.6525M75 101.5V94M75 101.5H67.6525M1 101.5V126H6.77305M1 101.5V94M1 101.5H5.19858M1 94H5.19858M75 94H67.6525M1 62.5H5.19858M75 62.5H67.6525M1 33.5H5.19858M75 33.5H67.6525M6.77305 9H10.4468M6.77305 9H5.19858M6.77305 9V33.5M6.77305 126H10.4468M6.77305 126V101.5M10.4468 9H17.7943M10.4468 9V33.5M10.4468 126H17.7943M10.4468 126V101.5M17.7943 9H22.5177M17.7943 9V33.5M17.7943 126H22.5177M17.7943 126V101.5M22.5177 126H30.3901M22.5177 126V101.5M22.5177 9H30.3901M22.5177 9V33.5M30.3901 9H34.0638M30.3901 9V33.5M30.3901 126H34.0638M30.3901 126V101.5M34.0638 9H40.8865M34.0638 9V33.5M34.0638 126H40.8865M34.0638 126V101.5M40.8865 9H45.6099M40.8865 9V33.5M40.8865 126H45.6099M40.8865 126V101.5M45.6099 9H52.9574M45.6099 9V33.5M45.6099 126H52.9574M45.6099 126V101.5M52.9574 9H56.6312M52.9574 9V33.5M52.9574 126H56.6312M52.9574 126V101.5M56.6312 9H63.4539M56.6312 9V33.5M56.6312 126H63.4539M56.6312 126V101.5M63.4539 126H67.6525M63.4539 126V101.5M63.4539 126C63.4539 118.959 63.4539 110.545 63.4539 101.5M63.4539 9H67.6525M63.4539 9V33.5M63.4539 9C63.4539 10.484 63.4539 20.0485 63.4539 33.5M67.6525 9C67.6525 6.66667 67.6525 1.8 67.6525 1M67.6525 9C67.6525 17.1667 67.6525 25.3333 67.6525 33.5M67.6525 126V101.5M5.19858 1V9M5.19858 1H67.6525M5.19858 33.5V40M5.19858 33.5H6.77305M5.19858 40H6.77305M5.19858 62.5V70M5.19858 62.5H6.77305M5.19858 70H6.77305M5.19858 94V101.5M5.19858 94H6.77305M5.19858 101.5H6.77305M6.77305 33.5H10.4468M10.4468 33.5H17.7943M17.7943 33.5H22.5177M22.5177 33.5H30.3901M30.3901 33.5H34.0638M34.0638 33.5H40.8865M40.8865 33.5H45.6099M45.6099 33.5H52.9574M52.9574 33.5H56.6312M56.6312 33.5H63.4539M63.4539 33.5H67.6525M67.6525 33.5V40M67.6525 40H63.4539M67.6525 40V62.5M63.4539 40V62.5M63.4539 40C63.4539 46.9182 63.4539 54.5684 63.4539 62.5M63.4539 40H56.6312M63.4539 62.5H67.6525M63.4539 62.5H56.6312M67.6525 62.5V70M56.6312 62.5V40M56.6312 62.5H52.9574M56.6312 40H52.9574M52.9574 40V62.5M52.9574 40H45.6099M52.9574 62.5H45.6099M45.6099 62.5V40M45.6099 62.5H40.8865M45.6099 40H40.8865M40.8865 40V62.5M40.8865 40H34.0638M40.8865 62.5H34.0638M34.0638 62.5V40M34.0638 62.5H30.3901M34.0638 40H30.3901M30.3901 40V62.5M30.3901 40H22.5177M30.3901 62.5H22.5177M22.5177 62.5V40M22.5177 62.5H17.7943M22.5177 40H17.7943M17.7943 40V62.5M17.7943 40H10.4468M17.7943 62.5H10.4468M10.4468 62.5V40M10.4468 62.5H6.77305M10.4468 40H6.77305M6.77305 40V62.5M10.4468 70H6.77305M10.4468 70V94M10.4468 70H17.7943M6.77305 70V94M6.77305 94H10.4468M10.4468 94H17.7943M17.7943 70V94M17.7943 70H22.5177M17.7943 94H22.5177M22.5177 94V70M22.5177 94H30.3901M22.5177 70H30.3901M30.3901 70V94M30.3901 70H34.0638M30.3901 94H34.0638M34.0638 94V70M34.0638 94H40.8865M34.0638 70H40.8865M40.8865 70V94M40.8865 70H45.6099M40.8865 94H45.6099M45.6099 94V70M45.6099 94H52.9574M45.6099 70H52.9574M52.9574 70V94M52.9574 70H56.6312M52.9574 94H56.6312M56.6312 94V70M56.6312 94H63.4539M56.6312 70H63.4539M67.6525 94V70M67.6525 94H63.4539M67.6525 94V101.5M67.6525 70H63.4539M63.4539 70V94M63.4539 70C63.4539 78.0083 63.4539 86.1555 63.4539 94M67.6525 101.5H63.4539M63.4539 101.5H56.6312M56.6312 101.5H52.9574M52.9574 101.5H45.6099M45.6099 101.5H40.8865M40.8865 101.5H34.0638M34.0638 101.5H30.3901M30.3901 101.5H22.5177M22.5177 101.5H17.7943M17.7943 101.5H10.4468M6.77305 101.5H10.4468" stroke="black"/>
</svg>
