<svg width="39" height="124" viewBox="0 0 39 124" fill="none" xmlns="http://www.w3.org/2000/svg">
<path d="M6.5 30C6.5 27.5 10 27.5 10 30C10 32.5 6.5 32.5 6.5 30Z" fill="black"/>
<path d="M6.5 10.5C6.5 8 10 8 10 10.5C10 13 6.5 13 6.5 10.5Z" fill="black"/>
<path d="M6.5 50.5C6.5 48 10 48 10 50.5C10 53 6.5 53 6.5 50.5Z" fill="black"/>
<path d="M6.5 70C6.5 67.5 10 67.5 10 70C10 72.5 6.5 72.5 6.5 70Z" fill="black"/>
<path d="M6.5 91C6.5 88.5 10 88.5 10 91C10 93.5 6.5 93.5 6.5 91Z" fill="black"/>
<path d="M6.5 112.5C6.5 110 10 110 10 112.5C10 115 6.5 115 6.5 112.5Z" fill="black"/>
<path d="M15.5 1H1V21.5M15.5 1H17.5M15.5 1V21.5M15.5 123.5H1V102.25M15.5 123.5H17.5M15.5 123.5V102.25M17.5 1V7.5M17.5 1H23M17.5 7.5H23V1M17.5 7.5V123.5M23 1H38V123.5H23M23 1V16.5M23 123.5H20.25M23 123.5V117M17.5 123.5H20.25M20.25 123.5L20 7.5M23 16.5L26.125 13.5L29.25 10.5L32.375 7.5M23 16.5V37.5M35.5 4.5L32.375 7.5M23 37.5V57M23 37.5L31.1522 30M35.5 26L31.1522 30M23 57V76.5M23 57L29.25 51.5M35.5 46L29.25 51.5M23 76.5V97M23 76.5L29.25 71M35.5 65.5L29.25 71M23 97V117M23 97L29.25 91.75M35.5 86.5L29.25 91.75M23 117L29.25 111.25M35.5 105.5L29.25 111.25M1 21.5H15.5M1 21.5V40.5M15.5 21.5V40.5M1 40.5H15.5M1 40.5V61M15.5 40.5V61M1 61H15.5M1 61V81M15.5 61V81M1 81H15.5M1 81V102.25M15.5 81V102.25M1 102.25H15.5M26.125 30H31.1522M26 51.5H29.25M26 71H29.25M26 91.75H29.25M26 111.25H29.25M26.125 7.5H32.375M6.5 30C6.5 27.5 10 27.5 10 30C10 32.5 6.5 32.5 6.5 30ZM6.5 10.5C6.5 8 10 8 10 10.5C10 13 6.5 13 6.5 10.5ZM6.5 50.5C6.5 48 10 48 10 50.5C10 53 6.5 53 6.5 50.5ZM6.5 70C6.5 67.5 10 67.5 10 70C10 72.5 6.5 72.5 6.5 70ZM6.5 91C6.5 88.5 10 88.5 10 91C10 93.5 6.5 93.5 6.5 91ZM6.5 112.5C6.5 110 10 110 10 112.5C10 115 6.5 115 6.5 112.5Z" stroke="black"/>
</svg>
